<svg width="55" height="54" viewBox="0 0 55 54" fill="none" xmlns="http://www.w3.org/2000/svg">
<g id="camera_alt">
<path id="Vector" d="M45.5 11.25H38.3675L34.25 6.75H20.75L16.6325 11.25H9.5C7.025 11.25 5 13.275 5 15.75V42.75C5 45.225 7.025 47.25 9.5 47.25H45.5C47.975 47.25 50 45.225 50 42.75V15.75C50 13.275 47.975 11.25 45.5 11.25ZM45.5 42.75H9.5V15.75H18.6125L22.73 11.25H32.27L36.3875 15.75H45.5V42.75ZM27.5 18C21.29 18 16.25 23.04 16.25 29.25C16.25 35.46 21.29 40.5 27.5 40.5C33.71 40.5 38.75 35.46 38.75 29.25C38.75 23.04 33.71 18 27.5 18ZM27.5 36C23.7875 36 20.75 32.9625 20.75 29.25C20.75 25.5375 23.7875 22.5 27.5 22.5C31.2125 22.5 34.25 25.5375 34.25 29.25C34.25 32.9625 31.2125 36 27.5 36Z" fill="#25C389"/>
</g>
</svg>
