<svg width="59" height="58" viewBox="0 0 59 58" fill="none" xmlns="http://www.w3.org/2000/svg">
<g id="draw">
<path id="Vector" d="M46.6644 25.1092L49.226 22.5475C51.111 20.6625 51.111 17.5933 49.226 15.7083L45.8185 12.3008C43.9335 10.4158 40.8644 10.4158 38.9794 12.3008L36.4177 14.8625L46.6644 25.1092ZM36.4177 28.5408L19.0177 45.9167H15.6102V42.5092L32.986 25.1333L36.4177 28.5408ZM32.986 18.27L10.7769 40.5033V50.75H21.0235L43.2327 28.5408L32.986 18.27ZM47.0269 42.2917C47.0269 47.5842 40.8885 50.75 34.9435 50.75C33.6144 50.75 32.5269 49.6625 32.5269 48.3333C32.5269 47.0042 33.6144 45.9167 34.9435 45.9167C38.6652 45.9167 42.1935 44.1525 42.1935 42.2917C42.1935 41.1558 41.0335 40.1892 39.221 39.3917L42.7977 35.815C45.3835 37.3375 47.0269 39.3675 47.0269 42.2917ZM12.1785 32.2625C9.83437 30.9092 8.3602 29.145 8.3602 26.5833C8.3602 22.2333 12.9277 20.2275 16.9635 18.4633C19.4527 17.3517 22.8602 15.8533 22.8602 14.5C22.8602 13.5092 20.9752 12.0833 18.0269 12.0833C14.9819 12.0833 13.6769 13.5575 13.6044 13.63C12.7585 14.6208 11.236 14.7417 10.221 13.92C9.2302 13.0983 9.03687 11.6242 9.85853 10.585C10.1244 10.2467 12.6135 7.25 18.0269 7.25C23.4402 7.25 27.6935 10.44 27.6935 14.5C27.6935 19.0192 23.0294 21.0733 18.8969 22.8858C16.6252 23.8767 13.1935 25.375 13.1935 26.5833C13.1935 27.3325 14.2327 28.0333 15.7794 28.6617L12.1785 32.2625Z" fill="#1596BD"/>
</g>
</svg>
