<svg width="55" height="54" viewBox="0 0 55 54" fill="none" xmlns="http://www.w3.org/2000/svg">
<g id="touch_app">
<path id="Vector" d="M41.5936 29.115L34.3035 25.47C37.206 23.22 39.0735 19.71 39.0735 15.75C39.0735 8.9325 33.516 3.375 26.6985 3.375C19.881 3.375 14.3235 8.9325 14.3235 15.75C14.3235 20.5425 17.0685 24.705 21.0735 26.7525V34.0875C16.236 33.0525 16.5285 33.0975 15.9885 33.0975C14.796 33.0975 13.671 33.57 12.816 34.425L9.66605 37.62L21.1185 49.0725C22.086 50.0625 23.436 50.625 24.831 50.625H39.0061C41.2111 50.625 43.0785 49.05 43.4385 46.8675L45.2385 36.27C45.7335 33.345 44.271 30.465 41.5936 29.115ZM40.806 35.5275L39.0061 46.125H24.831C24.6285 46.125 24.4485 46.035 24.291 45.9L16.011 37.62L25.5735 39.6225V15.75C25.5735 15.12 26.0685 14.625 26.6985 14.625C27.3285 14.625 27.8235 15.12 27.8235 15.75V29.25H31.7835L39.5686 33.1425C40.4686 33.5925 40.9636 34.56 40.806 35.5275ZM18.8235 15.75C18.8235 11.4075 22.356 7.875 26.6985 7.875C31.041 7.875 34.5735 11.4075 34.5735 15.75C34.5735 17.8875 33.7185 19.8225 32.3235 21.24V15.75C32.3235 12.645 29.8035 10.125 26.6985 10.125C23.5935 10.125 21.0735 12.645 21.0735 15.75V21.24C19.6785 19.8225 18.8235 17.8875 18.8235 15.75Z" fill="#DE6262"/>
</g>
</svg>
