<svg width="61" height="60" viewBox="0 0 61 60" fill="none" xmlns="http://www.w3.org/2000/svg">
<g id="lightbulb">
<path id="Vector" d="M23 52.5C23 53.875 24.125 55 25.5 55H35.5C36.875 55 38 53.875 38 52.5V50H23V52.5ZM30.5 5C20.85 5 13 12.85 13 22.5C13 28.45 15.975 33.675 20.5 36.85V42.5C20.5 43.875 21.625 45 23 45H38C39.375 45 40.5 43.875 40.5 42.5V36.85C45.025 33.675 48 28.45 48 22.5C48 12.85 40.15 5 30.5 5ZM37.625 32.75L35.5 34.25V40H25.5V34.25L23.375 32.75C20 30.4 18 26.575 18 22.5C18 15.6 23.6 10 30.5 10C37.4 10 43 15.6 43 22.5C43 26.575 41 30.4 37.625 32.75Z" fill="#FFB901"/>
</g>
</svg>
